<svg width="30" height="31" viewBox="0 0 30 31" fill="none" xmlns="http://www.w3.org/2000/svg">
<path d="M6.25 23.25V28.1144L8.14375 26.9403L14.0963 23.25H20C21.3788 23.25 22.5 22.0914 22.5 20.6667V10.3333C22.5 8.90863 21.3788 7.75 20 7.75H5C3.62125 7.75 2.5 8.90863 2.5 10.3333V20.6667C2.5 22.0914 3.62125 23.25 5 23.25H6.25ZM5 10.3333H20V20.6667H13.4037L8.75 23.5523V20.6667H5V10.3333Z" fill="#FEF9FF"/>
<path d="M25 2.58325H10C8.62125 2.58325 7.5 3.74188 7.5 5.16659H22.5C23.8788 5.16659 25 6.32521 25 7.74992V18.0833C26.3788 18.0833 27.5 16.9246 27.5 15.4999V5.16659C27.5 3.74188 26.3788 2.58325 25 2.58325Z" fill="#FEF9FF"/>
</svg>
