<svg width="29" height="26" viewBox="0 0 29 26" fill="none" xmlns="http://www.w3.org/2000/svg">
<path d="M28.1503 10.7317L16.5503 0.731946C16.0065 0.263281 15.269 0 14.5 0C13.731 0 12.9935 0.263281 12.4497 0.731946L0.849714 10.7317C0.579328 10.9633 0.364989 11.239 0.219129 11.5426C0.0732692 11.8462 -0.00120883 12.1717 1.4837e-05 12.5004V24.5C1.4837e-05 24.8979 0.183336 25.2794 0.509649 25.5607C0.835962 25.842 1.27854 26 1.74001 26H11.02C11.4815 26 11.9241 25.842 12.2504 25.5607C12.5767 25.2794 12.76 24.8979 12.76 24.5V18.0002H16.24V24.5C16.24 24.8979 16.4233 25.2794 16.7496 25.5607C17.0759 25.842 17.5185 26 17.98 26H27.26C27.7215 26 28.164 25.842 28.4904 25.5607C28.8167 25.2794 29 24.8979 29 24.5V12.5004C29.0012 12.1717 28.9267 11.8462 28.7809 11.5426C28.635 11.239 28.4207 10.9633 28.1503 10.7317ZM25.52 23.0001H19.72V16.5003C19.72 16.1024 19.5367 15.7209 19.2104 15.4396C18.884 15.1583 18.4415 15.0003 17.98 15.0003H11.02C10.5585 15.0003 10.116 15.1583 9.78964 15.4396C9.46333 15.7209 9.28 16.1024 9.28 16.5003V23.0001H3.48001V12.7066L14.5 3.20688L25.52 12.7066V23.0001Z" fill="#FEF9FF"/>
</svg>
